<svg id="Grupo_2101" data-name="Grupo 2101" xmlns="http://www.w3.org/2000/svg" viewBox="0 0 82.57 79.05"><rect id="Ret창ngulo_1680" data-name="Ret창ngulo 1680" y="20.07" width="82.57" height="58.98" rx="10" style="fill:#d3dcfb"/><rect id="Ret창ngulo_1681" data-name="Ret창ngulo 1681" y="27.44" width="77.17" height="44.24" rx="5" style="fill:#eff5f9"/><path id="Caminho_3593" data-name="Caminho 3593" d="M11.39,41H8a1.47,1.47,0,0,1-1.47-1.48h0V36.19A1.47,1.47,0,0,1,8,34.71h3.36a1.48,1.48,0,0,1,1.48,1.48h0v3.35A1.48,1.48,0,0,1,11.39,41Z" transform="translate(0 0)" style="fill:#3c58a0"/><path id="Caminho_3594" data-name="Caminho 3594" d="M24,41H20.66a1.48,1.48,0,0,1-1.48-1.48h0V36.19a1.48,1.48,0,0,1,1.48-1.48H24a1.48,1.48,0,0,1,1.48,1.48h0v3.35A1.48,1.48,0,0,1,24,41Z" transform="translate(0 0)" style="fill:#3c58a0"/><path id="Caminho_3595" data-name="Caminho 3595" d="M36.63,41H33.28a1.48,1.48,0,0,1-1.48-1.48h0V36.19a1.48,1.48,0,0,1,1.48-1.48h3.35a1.48,1.48,0,0,1,1.48,1.48h0v3.35A1.48,1.48,0,0,1,36.63,41Z" transform="translate(0 0)" style="fill:#3c58a0"/><path id="Caminho_3597" data-name="Caminho 3597" d="M61.87,41H58.52A1.48,1.48,0,0,1,57,39.54h0V36.19a1.48,1.48,0,0,1,1.48-1.48h3.35a1.48,1.48,0,0,1,1.48,1.48h0v3.35A1.48,1.48,0,0,1,61.87,41Z" transform="translate(0 0)" style="fill:#3c58a0"/><path id="Caminho_3598" data-name="Caminho 3598" d="M74.49,41H71.14a1.48,1.48,0,0,1-1.48-1.48h0V36.19a1.47,1.47,0,0,1,1.47-1.48h3.36A1.48,1.48,0,0,1,76,36.19h0v3.35A1.48,1.48,0,0,1,74.49,41Z" transform="translate(0 0)" style="fill:#3c58a0"/><path id="Caminho_3599" data-name="Caminho 3599" d="M11.39,53.64H8a1.47,1.47,0,0,1-1.47-1.48h0V48.81A1.47,1.47,0,0,1,8,47.33h3.36a1.48,1.48,0,0,1,1.48,1.48h0v3.35A1.48,1.48,0,0,1,11.39,53.64Z" transform="translate(0 0)" style="fill:#3c58a0"/><path id="Caminho_3600" data-name="Caminho 3600" d="M24,53.64H20.66a1.48,1.48,0,0,1-1.48-1.48h0V48.81a1.48,1.48,0,0,1,1.48-1.48H24a1.48,1.48,0,0,1,1.48,1.48h0v3.35A1.48,1.48,0,0,1,24,53.64Z" transform="translate(0 0)" style="fill:#3c58a0"/><path id="Caminho_3601" data-name="Caminho 3601" d="M36.63,53.64H33.28a1.48,1.48,0,0,1-1.48-1.48h0V48.81a1.48,1.48,0,0,1,1.48-1.48h3.35a1.48,1.48,0,0,1,1.48,1.48h0v3.35A1.48,1.48,0,0,1,36.63,53.64Z" transform="translate(0 0)" style="fill:#3c58a0"/><path id="Caminho_3603" data-name="Caminho 3603" d="M11.39,66.26H8a1.48,1.48,0,0,1-1.48-1.47h0V61.43A1.48,1.48,0,0,1,8,60h3.35a1.48,1.48,0,0,1,1.48,1.48h0v3.35A1.47,1.47,0,0,1,11.39,66.26Z" transform="translate(0 0)" style="fill:#3c58a0"/><path id="Caminho_3604" data-name="Caminho 3604" d="M24,66.26H20.66a1.48,1.48,0,0,1-1.48-1.48h0V61.43A1.48,1.48,0,0,1,20.66,60H24a1.48,1.48,0,0,1,1.48,1.48h0v3.35A1.48,1.48,0,0,1,24,66.26Z" transform="translate(0 0)" style="fill:#3c58a0"/><path id="Caminho_3605" data-name="Caminho 3605" d="M36.63,66.26H33.28a1.48,1.48,0,0,1-1.48-1.48h0V61.43A1.48,1.48,0,0,1,33.28,60h3.35a1.48,1.48,0,0,1,1.48,1.48h0v3.35A1.48,1.48,0,0,1,36.63,66.26Z" transform="translate(0 0)" style="fill:#3c58a0"/><path id="Caminho_3606" data-name="Caminho 3606" d="M74.45,34.71H71.18a1.55,1.55,0,0,0-.56.11,1.53,1.53,0,0,1,1,1.41V39.5a1.53,1.53,0,0,1-1,1.41,1.55,1.55,0,0,0,.56.11h3.26A1.53,1.53,0,0,0,76,39.5V36.23A1.52,1.52,0,0,0,74.45,34.71Z" transform="translate(0 0)" style="fill:#2a428c"/><path id="Caminho_3607" data-name="Caminho 3607" d="M61.83,34.71H58.56a1.55,1.55,0,0,0-.56.11,1.51,1.51,0,0,1,1,1.41V39.5a1.51,1.51,0,0,1-1,1.41,1.55,1.55,0,0,0,.56.11h3.27a1.52,1.52,0,0,0,1.52-1.52V36.23A1.52,1.52,0,0,0,61.83,34.71Z" transform="translate(0 0)" style="fill:#2a428c"/><path id="Caminho_3596" data-name="Caminho 3596" d="M49.25,41H45.9a1.47,1.47,0,0,1-1.48-1.47h0V36.19a1.48,1.48,0,0,1,1.48-1.48h3.35a1.48,1.48,0,0,1,1.48,1.48h0v3.35A1.48,1.48,0,0,1,49.25,41Z" transform="translate(0 0)" style="fill:#3c58a0"/><path id="Caminho_3608" data-name="Caminho 3608" d="M49.21,34.71H45.94a1.55,1.55,0,0,0-.56.11,1.51,1.51,0,0,1,1,1.41V39.5a1.51,1.51,0,0,1-1,1.41,1.55,1.55,0,0,0,.56.11h3.27a1.52,1.52,0,0,0,1.52-1.52V36.23A1.52,1.52,0,0,0,49.21,34.71Z" transform="translate(0 0)" style="fill:#2a428c"/><path id="Caminho_3596-2" data-name="Caminho 3596-2" d="M61.82,41H58.47A1.48,1.48,0,0,1,57,39.55h0V36.19a1.48,1.48,0,0,1,1.48-1.48h3.35a1.48,1.48,0,0,1,1.48,1.48h0v3.35A1.48,1.48,0,0,1,61.82,41Z" transform="translate(0 0)" style="fill:#3c58a0"/><path id="Caminho_3608-2" data-name="Caminho 3608-2" d="M61.78,34.71H58.52a1.47,1.47,0,0,0-.56.11,1.52,1.52,0,0,1,1,1.41V39.5a1.52,1.52,0,0,1-1,1.41,1.47,1.47,0,0,0,.56.11h3.26A1.52,1.52,0,0,0,63.3,39.5V36.23A1.52,1.52,0,0,0,61.78,34.71Z" transform="translate(0 0)" style="fill:#2a428c"/><path id="Caminho_3596-3" data-name="Caminho 3596-3" d="M74.4,41H71a1.48,1.48,0,0,1-1.48-1.47h0V36.19A1.48,1.48,0,0,1,71,34.71h3.35a1.48,1.48,0,0,1,1.48,1.48h0v3.35A1.47,1.47,0,0,1,74.4,41Z" transform="translate(0 0)" style="fill:#3c58a0"/><path id="Caminho_3608-3" data-name="Caminho 3608-3" d="M74.35,34.71H71.09a1.55,1.55,0,0,0-.56.11,1.52,1.52,0,0,1,1,1.41V39.5a1.52,1.52,0,0,1-1,1.41,1.55,1.55,0,0,0,.56.11h3.26a1.52,1.52,0,0,0,1.52-1.52V36.23A1.52,1.52,0,0,0,74.35,34.71Z" transform="translate(0 0)" style="fill:#2a428c"/><path id="Caminho_3596-4" data-name="Caminho 3596-4" d="M49.25,53.78H45.9a1.48,1.48,0,0,1-1.48-1.48h0V49a1.48,1.48,0,0,1,1.48-1.48h3.35A1.48,1.48,0,0,1,50.73,49h0V52.3A1.49,1.49,0,0,1,49.25,53.78Z" transform="translate(0 0)" style="fill:#3c58a0"/><path id="Caminho_3608-4" data-name="Caminho 3608-4" d="M49.21,47.47H45.94a1.54,1.54,0,0,0-.56.1,1.52,1.52,0,0,1,1,1.42v3.26a1.52,1.52,0,0,1-1,1.42,1.55,1.55,0,0,0,.56.11h3.27a1.53,1.53,0,0,0,1.52-1.53V49A1.52,1.52,0,0,0,49.21,47.47Z" transform="translate(0 0)" style="fill:#2a428c"/><path id="Caminho_3596-5" data-name="Caminho 3596-5" d="M61.82,53.78H58.47A1.48,1.48,0,0,1,57,52.3h0V49a1.48,1.48,0,0,1,1.48-1.48h3.35A1.48,1.48,0,0,1,63.3,49h0V52.3A1.49,1.49,0,0,1,61.82,53.78Z" transform="translate(0 0)" style="fill:#3c58a0"/><path id="Caminho_3608-5" data-name="Caminho 3608-5" d="M61.78,47.47H58.52a1.47,1.47,0,0,0-.56.1,1.52,1.52,0,0,1,1,1.42v3.26a1.52,1.52,0,0,1-1,1.42,1.47,1.47,0,0,0,.56.11h3.26a1.53,1.53,0,0,0,1.52-1.53V49A1.52,1.52,0,0,0,61.78,47.47Z" transform="translate(0 0)" style="fill:#2a428c"/><path id="Caminho_3596-6" data-name="Caminho 3596-6" d="M74.4,53.78H71a1.48,1.48,0,0,1-1.48-1.48h0V49A1.48,1.48,0,0,1,71,47.47h3.35A1.48,1.48,0,0,1,75.87,49h0V52.3A1.49,1.49,0,0,1,74.4,53.78Z" transform="translate(0 0)" style="fill:#3c58a0"/><path id="Caminho_3608-6" data-name="Caminho 3608-6" d="M74.35,47.47H71.09a1.54,1.54,0,0,0-.56.1,1.52,1.52,0,0,1,1,1.42v3.26a1.52,1.52,0,0,1-1,1.42,1.55,1.55,0,0,0,.56.11h3.26a1.53,1.53,0,0,0,1.52-1.53V49A1.52,1.52,0,0,0,74.35,47.47Z" transform="translate(0 0)" style="fill:#2a428c"/><path id="Caminho_3596-7" data-name="Caminho 3596-7" d="M49.25,66.53H45.9a1.46,1.46,0,0,1-1.48-1.47h0V61.7a1.48,1.48,0,0,1,1.48-1.48h3.35a1.49,1.49,0,0,1,1.48,1.48h0v3.35A1.48,1.48,0,0,1,49.25,66.53Z" transform="translate(0 0)" style="fill:#3c58a0"/><path id="Caminho_3608-7" data-name="Caminho 3608-7" d="M49.21,60.22H45.94a1.55,1.55,0,0,0-.56.11,1.52,1.52,0,0,1,1,1.42V65a1.53,1.53,0,0,1-1,1.42,1.54,1.54,0,0,0,.56.1h3.27A1.52,1.52,0,0,0,50.73,65V61.75A1.52,1.52,0,0,0,49.21,60.22Z" transform="translate(0 0)" style="fill:#2a428c"/><path id="Caminho_3596-8" data-name="Caminho 3596-8" d="M61.82,66.53H58.47A1.47,1.47,0,0,1,57,65.06h0V61.7a1.48,1.48,0,0,1,1.48-1.48h3.35A1.48,1.48,0,0,1,63.3,61.7h0v3.35A1.48,1.48,0,0,1,61.82,66.53Z" transform="translate(0 0)" style="fill:#3c58a0"/><path id="Caminho_3608-8" data-name="Caminho 3608-8" d="M61.78,60.22H58.52a1.47,1.47,0,0,0-.56.11,1.52,1.52,0,0,1,1,1.42V65a1.53,1.53,0,0,1-1,1.42,1.47,1.47,0,0,0,.56.1h3.26A1.52,1.52,0,0,0,63.3,65V61.75A1.52,1.52,0,0,0,61.78,60.22Z" transform="translate(0 0)" style="fill:#2a428c"/><path id="Caminho_3596-9" data-name="Caminho 3596-9" d="M74.4,66.53H71a1.47,1.47,0,0,1-1.48-1.47h0V61.7A1.48,1.48,0,0,1,71,60.22h3.35a1.48,1.48,0,0,1,1.48,1.48h0v3.35A1.47,1.47,0,0,1,74.4,66.53Z" transform="translate(0 0)" style="fill:#3c58a0"/><path id="Caminho_3608-9" data-name="Caminho 3608-9" d="M74.35,60.22H71.09a1.55,1.55,0,0,0-.56.11,1.52,1.52,0,0,1,1,1.42V65a1.53,1.53,0,0,1-1,1.42,1.54,1.54,0,0,0,.56.1h3.26A1.52,1.52,0,0,0,75.87,65V61.75A1.52,1.52,0,0,0,74.35,60.22Z" transform="translate(0 0)" style="fill:#2a428c"/><path id="Caminho_3609" data-name="Caminho 3609" d="M36.59,34.71H33.32a1.55,1.55,0,0,0-.56.11,1.51,1.51,0,0,1,1,1.41V39.5a1.51,1.51,0,0,1-1,1.41,1.55,1.55,0,0,0,.56.11h3.27a1.52,1.52,0,0,0,1.52-1.52h0V36.23a1.52,1.52,0,0,0-1.52-1.52Z" transform="translate(0 0)" style="fill:#2a428c"/><path id="Caminho_3610" data-name="Caminho 3610" d="M24,34.71H20.7a1.55,1.55,0,0,0-.56.11,1.53,1.53,0,0,1,1,1.41V39.5a1.53,1.53,0,0,1-1,1.41,1.55,1.55,0,0,0,.56.11H24a1.52,1.52,0,0,0,1.53-1.52h0V36.23A1.52,1.52,0,0,0,24,34.71Z" transform="translate(0 0)" style="fill:#2a428c"/><path id="Caminho_3611" data-name="Caminho 3611" d="M11.34,34.71H8.08a1.55,1.55,0,0,0-.56.11,1.52,1.52,0,0,1,1,1.41V39.5a1.52,1.52,0,0,1-1,1.41,1.55,1.55,0,0,0,.56.11h3.26a1.53,1.53,0,0,0,1.53-1.52h0V36.23A1.53,1.53,0,0,0,11.34,34.71Z" transform="translate(0 0)" style="fill:#2a428c"/><path id="Caminho_3612" data-name="Caminho 3612" d="M11.34,47.33H8.08a1.55,1.55,0,0,0-.56.11,1.52,1.52,0,0,1,1,1.41v3.27a1.52,1.52,0,0,1-1,1.41,1.55,1.55,0,0,0,.56.11h3.26a1.53,1.53,0,0,0,1.53-1.52V48.85A1.53,1.53,0,0,0,11.34,47.33Z" transform="translate(0 0)" style="fill:#2a428c"/><path id="Caminho_3613" data-name="Caminho 3613" d="M11.34,60H8.08a1.55,1.55,0,0,0-.56.11,1.52,1.52,0,0,1,1,1.41v3.27a1.51,1.51,0,0,1-1,1.41,1.36,1.36,0,0,0,.56.11h3.26a1.53,1.53,0,0,0,1.53-1.52V61.47A1.53,1.53,0,0,0,11.34,60Z" transform="translate(0 0)" style="fill:#2a428c"/><path id="Caminho_3614" data-name="Caminho 3614" d="M24,47.33H20.7a1.55,1.55,0,0,0-.56.11,1.53,1.53,0,0,1,1,1.41v3.27a1.53,1.53,0,0,1-1,1.41,1.55,1.55,0,0,0,.56.11H24a1.52,1.52,0,0,0,1.53-1.52V48.85A1.52,1.52,0,0,0,24,47.33Z" transform="translate(0 0)" style="fill:#2a428c"/><path id="Caminho_3615" data-name="Caminho 3615" d="M24,60H20.7a1.55,1.55,0,0,0-.56.11,1.53,1.53,0,0,1,1,1.41v3.27a1.52,1.52,0,0,1-1,1.41,1.36,1.36,0,0,0,.56.11H24a1.52,1.52,0,0,0,1.53-1.52V61.47A1.52,1.52,0,0,0,24,60Z" transform="translate(0 0)" style="fill:#2a428c"/><path id="Caminho_3616" data-name="Caminho 3616" d="M36.59,47.33H33.32a1.55,1.55,0,0,0-.56.11,1.51,1.51,0,0,1,1,1.41v3.27a1.51,1.51,0,0,1-1,1.41,1.55,1.55,0,0,0,.56.11h3.27a1.52,1.52,0,0,0,1.52-1.52V48.85A1.52,1.52,0,0,0,36.59,47.33Z" transform="translate(0 0)" style="fill:#2a428c"/><path id="Caminho_3618" data-name="Caminho 3618" d="M36.59,60H33.32a1.55,1.55,0,0,0-.56.11,1.51,1.51,0,0,1,1,1.41v3.27a1.5,1.5,0,0,1-1,1.41,1.36,1.36,0,0,0,.56.11h3.27a1.52,1.52,0,0,0,1.52-1.52V61.47A1.52,1.52,0,0,0,36.59,60Z" transform="translate(0 0)" style="fill:#2a428c"/><path id="Caminho_3620" data-name="Caminho 3620" d="M82.28,28.4V12.62A6.31,6.31,0,0,0,76,6.31H6.55A6.32,6.32,0,0,0,.24,12.62h0V28.4Z" transform="translate(0 0)" style="fill:#ff4155"/><path id="Caminho_3621" data-name="Caminho 3621" d="M20.12,14.05H16a1.43,1.43,0,1,1,0-2.85h4.1a1.43,1.43,0,1,1,0,2.85Z" transform="translate(0 0)" style="fill:#e80054"/><path id="Caminho_3622" data-name="Caminho 3622" d="M30.22,14.05H26.11a1.43,1.43,0,1,1,0-2.85h4.11a1.43,1.43,0,1,1,0,2.85Z" transform="translate(0 0)" style="fill:#e80054"/><path id="Caminho_3623" data-name="Caminho 3623" d="M56.42,14.05H52.31a1.43,1.43,0,1,1,0-2.85h4.11a1.43,1.43,0,0,1,0,2.85Z" transform="translate(0 0)" style="fill:#e80054"/><path id="Caminho_3624" data-name="Caminho 3624" d="M66.51,14.05H62.4a1.43,1.43,0,1,1,0-2.85h4.11a1.43,1.43,0,1,1,0,2.85Z" transform="translate(0 0)" style="fill:#e80054"/><path id="Caminho_3625" data-name="Caminho 3625" d="M27.06,11.83a3.94,3.94,0,1,1-7.88,0V3.94a3.94,3.94,0,1,1,7.88,0v7.89Z" transform="translate(0 0)" style="fill:#ebf5fc"/><path id="Caminho_3626" data-name="Caminho 3626" d="M63.35,11.83a3.95,3.95,0,1,1-7.89,0V3.94a3.95,3.95,0,0,1,7.89,0v7.89Z" transform="translate(0 0)" style="fill:#ebf5fc"/><path id="Caminho_3627" data-name="Caminho 3627" d="M59.41,0a4,4,0,0,0-2.19.66A4,4,0,0,1,59,3.94v7.89a3.93,3.93,0,0,1-1.76,3.28,3.94,3.94,0,0,0,6.13-3.28V3.94A3.94,3.94,0,0,0,59.41,0Z" transform="translate(0 0)" style="fill:#d3dcfb"/><path id="Caminho_3628" data-name="Caminho 3628" d="M23.12,0a4,4,0,0,0-2.19.66,4,4,0,0,1,1.76,3.28v7.89a3.93,3.93,0,0,1-1.76,3.28,3.94,3.94,0,0,0,6.13-3.28V3.94A3.94,3.94,0,0,0,23.12,0Z" transform="translate(0 0)" style="fill:#d3dcfb"/><path id="Caminho_3629" data-name="Caminho 3629" d="M76,6.31H71.6a6.31,6.31,0,0,1,6.3,6.31V28.4h4.39V12.62A6.32,6.32,0,0,0,76,6.31Z" transform="translate(0 0)" style="fill:#e80054"/><path id="Caminho_3630" data-name="Caminho 3630" d="M.24,20.66h82v2.86H.24Z" transform="translate(0 0)" style="fill:#e80054"/><path id="Caminho_3655" data-name="Caminho 3655" d="M49.57,66.26H46.22a1.48,1.48,0,0,1-1.48-1.48h0V61.43A1.48,1.48,0,0,1,46.22,60h3.35a1.48,1.48,0,0,1,1.48,1.48h0v3.35A1.48,1.48,0,0,1,49.57,66.26Z" transform="translate(0 0)" style="fill:#3c58a0"/><path id="Caminho_3656" data-name="Caminho 3656" d="M49.53,60H46.26a1.55,1.55,0,0,0-.56.11,1.51,1.51,0,0,1,1,1.41v3.27a1.5,1.5,0,0,1-1,1.41,1.36,1.36,0,0,0,.56.11h3.27a1.52,1.52,0,0,0,1.52-1.52V61.47A1.52,1.52,0,0,0,49.53,60Z" transform="translate(0 0)" style="fill:#2a428c"/></svg>