<svg xmlns="http://www.w3.org/2000/svg" viewBox="0 0 151.87 142.47"><path d="M90.6,4.6a25.07,25.07,0,0,0-4.4,3.5,23.24,23.24,0,0,0-32.9-.4A23,23,0,0,0,49.9,12,31.07,31.07,0,1,0,12.2,61.4l.2.2a25.87,25.87,0,0,0,28.9,42.9l80.3-52.2a28.44,28.44,0,1,0-31-47.7Z" transform="translate(0.04 0.04)" style="fill:#d7ebf9"/><path d="M61.3,137.8a25.07,25.07,0,0,0,4.4-3.5,23.24,23.24,0,0,0,32.9.4,20.13,20.13,0,0,0,3.4-4.3A31,31,0,0,0,139.6,81l-.2-.2a25.87,25.87,0,0,0-28.9-42.9L30.2,90.1a28.47,28.47,0,1,0,31.1,47.7Z" transform="translate(0.04 0.04)" style="fill:#d7ebf9"/></svg>