<svg xmlns="http://www.w3.org/2000/svg" width="63.325" height="21.056" viewBox="0 0 63.325 21.056">
  <g id="Grupo_2067" data-name="Grupo 2067" transform="translate(-1587.218 -706.357)">
    <path id="Subtração_1" data-name="Subtração 1" d="M41.972,16.848a7.861,7.861,0,0,1-3.725-.863,6.179,6.179,0,0,1-2.512-2.412,6.943,6.943,0,0,1-.887-3.5A7.054,7.054,0,0,1,35.709,6.6a6.207,6.207,0,0,1,2.375-2.413A6.792,6.792,0,0,1,41.5,3.323a6.654,6.654,0,0,1,3.388.862A6.091,6.091,0,0,1,47.209,6.6a7.385,7.385,0,0,1,.837,3.55,6.909,6.909,0,0,1-.049.725H37.246a4.179,4.179,0,0,0,1.538,2.813,5.039,5.039,0,0,0,3.263,1.062,4.936,4.936,0,0,0,3.825-1.6L47.2,14.7a5.841,5.841,0,0,1-2.237,1.6A7.833,7.833,0,0,1,41.972,16.848ZM41.5,5.348A4.165,4.165,0,0,0,38.609,6.4a4.248,4.248,0,0,0-1.363,2.75h8.5A4.283,4.283,0,0,0,44.384,6.41,4.138,4.138,0,0,0,41.5,5.348Zm-15.625,11.5a7.211,7.211,0,0,1-3.55-.876,6.367,6.367,0,0,1-2.462-2.412,6.875,6.875,0,0,1-.887-3.488,6.875,6.875,0,0,1,.887-3.487,6.282,6.282,0,0,1,2.462-2.4,7.3,7.3,0,0,1,3.55-.862,7.227,7.227,0,0,1,3.538.862,6.308,6.308,0,0,1,2.45,2.4,6.875,6.875,0,0,1,.887,3.487,6.875,6.875,0,0,1-.887,3.488,6.394,6.394,0,0,1-2.45,2.412A7.138,7.138,0,0,1,25.871,16.848Zm0-11.426A4.569,4.569,0,0,0,23.584,6a4.164,4.164,0,0,0-1.6,1.638,4.977,4.977,0,0,0-.588,2.437,4.977,4.977,0,0,0,.588,2.437,4.259,4.259,0,0,0,1.6,1.651,4.751,4.751,0,0,0,4.575,0,4.173,4.173,0,0,0,1.588-1.651,5.061,5.061,0,0,0,.575-2.437,5.061,5.061,0,0,0-.575-2.437A4.082,4.082,0,0,0,28.159,6,4.57,4.57,0,0,0,25.871,5.423ZM7.272,16.7H-.1V5.7H2.4v8.822H7.122a8.139,8.139,0,0,0,3.738-.824,5.991,5.991,0,0,0,2.488-2.313,6.684,6.684,0,0,0,.875-3.437,6.686,6.686,0,0,0-.875-3.438A5.994,5.994,0,0,0,10.859,2.2a7.078,7.078,0,0,0-1.15-.464v-2.3A9.762,9.762,0,0,1,12.2.3a8.113,8.113,0,0,1,3.337,3.087,8.764,8.764,0,0,1,1.188,4.563,8.757,8.757,0,0,1-1.188,4.562A8.114,8.114,0,0,1,12.2,15.6,10.711,10.711,0,0,1,7.272,16.7Zm50.4-3.275h-2.1V8.948H51.022V6.972h4.549v-4.5h2.1v4.5h4.549V8.948H57.672v4.474Z" transform="translate(1587.821 710.065)" fill="#1a1c20" stroke="rgba(0,0,0,0)" stroke-miterlimit="10" stroke-width="1"/>
    <g id="Grupo_21" data-name="Grupo 21" transform="translate(1588.157 706.357)">
      <path id="Caminho_3" data-name="Caminho 3" d="M121.929,133.627a2.442,2.442,0,0,1-2.109,1.081,2.5,2.5,0,0,1-2.076-3.77l1.844-3.143a.341.341,0,0,1,.413-.148.336.336,0,0,1,.176.148l1.844,3.143a2.5,2.5,0,0,1-.093,2.689Zm0,0" transform="translate(-115.233 -127.101)" fill="#f44545"/>
      <path id="Caminho_5" data-name="Caminho 5" d="M2.292,101.624a1.171,1.171,0,0,1-1.108.774,1.19,1.19,0,0,1-1.018-1.8l.757-1.291a.3.3,0,0,1,.4-.118.3.3,0,0,1,.126.118L2.2,100.6a1.186,1.186,0,0,1,.09,1.022Zm0,0" transform="translate(0 -99.162)" fill="#f44545"/>
    </g>
  </g>
</svg>
